<svg viewBox="0 0 1200 630" xmlns="http://www.w3.org/2000/svg">
  <defs>
    <linearGradient id="bg" x1="0" y1="0" x2="1" y2="1">
      <stop offset="0%" stop-color="#1d1712"/>
      <stop offset="100%" stop-color="#14100d"/>
    </linearGradient>
    <linearGradient id="gold" x1="0" y1="0" x2="1" y2="0">
      <stop offset="0%" stop-color="#c9a227"/>
      <stop offset="100%" stop-color="#e8c25e"/>
    </linearGradient>
  </defs>
  <rect width="1200" height="630" fill="url(#bg)"/>
  <rect x="0" y="0" width="1200" height="630" fill="none" stroke="#f6f1e9" stroke-opacity="0.08" stroke-width="1"/>

  <!-- Rope / coil mark -->
  <g transform="translate(560, 175)" opacity="0.95">
    <path d="M40 0C10 0 -10 30 -10 55c0 25 15 40 15 60 0 15 -10 20 -10 20"
          stroke="#c9a227" stroke-width="5" stroke-linecap="round" fill="none"/>
    <path d="M40 0c30 0 50 30 50 55 0 25 -15 40 -15 60 0 15 10 20 10 20"
          stroke="url(#gold)" stroke-width="5" stroke-linecap="round" fill="none"/>
  </g>

  <text x="600" y="360" text-anchor="middle" font-family="Georgia, 'Times New Roman', serif"
        font-size="56" fill="#f6f1e9" letter-spacing="1">Dreadlocks Innocent</text>
  <text x="600" y="405" text-anchor="middle" font-family="Arial, sans-serif"
        font-size="20" letter-spacing="4" fill="#c9a227">PREMIUM LOC STUDIO · PORT HARCOURT</text>

  <line x1="500" y1="440" x2="700" y2="440" stroke="#c9a227" stroke-opacity="0.5" stroke-width="1"/>

  <text x="600" y="480" text-anchor="middle" font-family="Arial, sans-serif"
        font-size="16" letter-spacing="2" fill="#cbbfa9">STARTER LOCS · RETWISTS · MAINTENANCE · STYLING</text>

  <!-- Replace this generated cover with an approved studio photo when available -->
</svg>
